<?xml version="1.0" ?><!DOCTYPE svg  PUBLIC '-//W3C//DTD SVG 1.1//EN'  'http://www.w3.org/Graphics/SVG/1.1/DTD/svg11.dtd'><svg height="512px" style="enable-background:new 0 0 512 512;" version="1.1" viewBox="0 0 512 512" width="512px" xml:space="preserve" xmlns="http://www.w3.org/2000/svg" xmlns:xlink="http://www.w3.org/1999/xlink"><g id="_x36_97_x2C__Business_x2C__cost_x2C__cut_x2C__expense_x2C__finance_x2C__money"><g><path d="M350.766,266.705H117.498c-0.695,7.762-4.167,14.756-9.39,19.977    c-5.245,5.247-12.239,8.695-19.999,9.414v76.574c7.76,0.718,14.754,4.191,19.976,9.412c5.245,5.247,8.718,12.24,9.413,20.001    h233.268c0.719-7.761,4.167-14.754,9.412-19.976c5.246-5.246,12.241-8.72,19.977-9.438v-76.574    c-7.76-0.719-14.754-4.167-19.977-9.414C354.957,281.461,351.484,274.467,350.766,266.705 M256.395,312.119    c-5.677-5.678-13.558-9.197-22.252-9.197c-8.695,0-16.574,3.52-22.275,9.197c-5.677,5.701-9.197,13.581-9.197,22.275    c0,8.693,3.52,16.551,9.221,22.251c5.677,5.701,13.556,9.222,22.25,9.222c8.623,0,16.431-3.473,22.108-9.078l0.144-0.144    c5.701-5.7,9.221-13.558,9.221-22.251C265.616,325.7,262.096,317.82,256.395,312.119z M234.143,296.789    c10.372,0,19.76,4.192,26.587,11.018c6.802,6.804,11.017,16.193,11.017,26.588c0,10.371-4.215,19.783-11.017,26.587l-0.193,0.167    C253.759,367.855,244.418,372,234.143,372c-10.396,0-19.808-4.217-26.611-11.019c-6.802-6.804-10.994-16.216-10.994-26.587    s4.217-19.784,10.994-26.588l0.072-0.071C214.407,300.981,223.797,296.789,234.143,296.789z M465.976,166.467    c-12.36-12.357-29.463-20.023-48.337-20.023s-35.951,7.666-48.311,20.023c-12.383,12.359-20.024,29.461-20.024,48.335    s7.642,35.953,20.001,48.312c12.383,12.384,29.46,20.023,48.334,20.023s35.977-7.64,48.337-20.023    c12.381-12.358,20.023-29.438,20.023-48.312c0-18.802-7.593-35.832-19.857-48.19L465.976,166.467z M343.27,218.563    c-0.072-1.246-0.098-2.515-0.098-3.761c0-1.604,0.048-3.21,0.145-4.79H32.947v187.927h10.107V221.486    c0-1.605,1.318-2.924,2.923-2.924H343.27z M345.831,234.539c-0.909-3.281-1.581-6.659-2.036-10.109H48.924V400.98v11.401h10.107    V237.486c0-1.631,1.317-2.947,2.946-2.947H345.831z M403.364,287.903c-14.826-2.897-28.096-10.18-38.372-20.455l-0.071-0.07    c-7.546-7.57-13.461-16.744-17.222-26.946H64.923v174.968v12.959h338.441V287.903z M435.172,177.989v36.405h15.593    c0.742,0,1.485,0.288,2.061,0.839c1.149,1.127,1.174,2.993,0.047,4.144l-33.556,34.371c-1.174,1.125-3.019,1.078-4.145-0.096    l-32.623-34.132c-0.574-0.551-0.958-1.315-0.958-2.179c0-1.629,1.317-2.947,2.946-2.947h15.593v-36.405    c0-1.63,1.317-2.946,2.946-2.946h29.15C433.854,175.043,435.172,176.359,435.172,177.989z M429.28,217.342V180.91h-23.258v36.432    c0,1.605-1.341,2.921-2.946,2.921h-11.664l25.916,27.14l26.467-27.14h-11.568C430.62,220.263,429.28,218.947,429.28,217.342z     M114.695,260.813h238.896c1.604,0,2.947,1.317,2.947,2.946c0,7.307,2.969,13.941,7.809,18.779    c4.813,4.813,11.447,7.809,18.752,7.809c1.629,0,2.947,1.316,2.947,2.946v82.202c0,1.629-1.318,2.947-2.947,2.947    c-7.305,0-13.964,2.969-18.752,7.783c-4.84,4.838-7.809,11.473-7.809,18.803c0,1.604-1.343,2.946-2.947,2.946H114.695    c-1.628,0-2.946-1.343-2.946-2.946c0-7.305-2.994-13.965-7.809-18.779c-4.813-4.813-11.473-7.807-18.778-7.807    c-1.628,0-2.946-1.318-2.946-2.947v-82.202c0-1.63,1.317-2.946,2.946-2.946c7.305,0,13.964-2.996,18.778-7.809    c4.815-4.838,7.809-11.473,7.809-18.779C111.749,262.131,113.067,260.813,114.695,260.813z M235.796,345.364    c1.126-0.239,2.06-0.79,2.779-1.604c0.693-0.838,1.053-1.82,1.053-2.945c0-1.008-0.288-1.869-0.886-2.611    c-0.599-0.72-1.581-1.271-2.946-1.678V345.364z M232.515,321.34c-0.886,0.313-1.581,0.816-2.083,1.559    c-0.528,0.717-0.767,1.509-0.767,2.37c0,0.79,0.216,1.534,0.695,2.228c0.455,0.672,1.197,1.223,2.155,1.652V321.34z     M174.336,462.585c-1.628,0-2.946-1.317-2.946-2.946c0-1.628,1.318-2.946,2.946-2.946h160.98c1.629,0,2.946,1.318,2.946,2.946    c0,1.629-1.317,2.946-2.946,2.946H174.336z M351.795,462.585c-1.628,0-2.945-1.317-2.945-2.946c0-1.628,1.317-2.946,2.945-2.946    h20.12c1.629,0,2.946,1.318,2.946,2.946c0,1.629-1.317,2.946-2.946,2.946H351.795z M28.948,462.155    c-1.63,0-2.946-1.318-2.946-2.946c0-1.63,1.316-2.946,2.946-2.946h76.286c1.606,0,2.922,1.316,2.922,2.946    c0,1.628-1.316,2.946-2.922,2.946H28.948z M109.857,155.809c1.149-1.126,3.017-1.102,4.143,0.048s1.126,3.019-0.047,4.145    l-11.544,11.329l-0.049,0.047c-0.551,0.599-1.316,0.982-2.179,0.982c-0.862,0-1.653-0.384-2.18-0.982l-0.047-0.047l-11.569-11.329    c-1.149-1.126-1.174-2.995-0.047-4.145c1.149-1.149,3.016-1.174,4.167-0.048l6.729,6.61v-58.322c0-1.628,1.318-2.946,2.946-2.946    c1.605,0,2.946,1.318,2.946,2.946v58.322L109.857,155.809z M160.203,168.24c1.151-1.15,3.018-1.125,4.145,0.023    c1.149,1.15,1.125,3.019-0.024,4.144l-11.569,11.353l-0.047,0.048c-0.526,0.575-1.318,0.958-2.179,0.958    c-0.862,0-1.628-0.357-2.18-0.958l-0.047-0.048l-11.569-11.353c-1.151-1.125-1.151-2.993-0.024-4.144    c1.126-1.148,2.993-1.174,4.143-0.023l6.731,6.587V73.293c0-1.628,1.318-2.945,2.946-2.945s2.946,1.317,2.946,2.945v101.534    L160.203,168.24z M196.635,147.306c1.174-1.125,3.018-1.125,4.167,0.024c1.125,1.174,1.102,3.018-0.047,4.168l-11.569,11.328    l-0.049,0.049c-0.527,0.599-1.316,0.959-2.155,0.959c-0.862,0-1.653-0.36-2.204-0.959l-0.025-0.049l-11.567-11.328    c-1.151-1.15-1.174-2.994-0.049-4.168c1.151-1.149,2.995-1.149,4.167-0.024l6.731,6.587V52.359c0-1.629,1.318-2.944,2.946-2.944    c1.604,0,2.921,1.315,2.921,2.944v101.533L196.635,147.306z M38.097,448.43c-1.605,0-2.921-1.318-2.921-2.946    c0-1.629,1.316-2.946,2.921-2.946h232.645c1.629,0,2.946,1.317,2.946,2.946c0,1.628-1.317,2.946-2.946,2.946H38.097z     M232.515,345.004v-9.437c-2.922-0.837-5.079-2.107-6.444-3.833c-1.365-1.699-2.06-3.76-2.06-6.202    c0-2.468,0.792-4.527,2.323-6.203c1.559-1.678,3.619-2.636,6.181-2.899v-2.201h3.281v2.201c2.395,0.288,4.312,1.103,5.749,2.445    c1.413,1.365,2.323,3.16,2.708,5.411l-5.726,0.744c-0.36-1.774-1.269-2.971-2.73-3.594v8.791c3.641,0.981,6.108,2.251,7.401,3.783    c1.318,1.557,1.988,3.569,1.988,5.989c0,2.73-0.839,5.004-2.492,6.873s-3.952,3.019-6.898,3.473v4.217h-3.281v-4.168    c-2.587-0.313-4.694-1.27-6.323-2.874c-1.605-1.605-2.635-3.882-3.09-6.825L228.97,340c0.239,1.197,0.695,2.227,1.341,3.113    C230.982,343.977,231.7,344.598,232.515,345.004z" style="fill-rule:evenodd;clip-rule:evenodd;"/></g></g><g id="Layer_1"/></svg>