<?xml version="1.0" ?><svg id="Layer_1" style="enable-background:new 0 0 30 30;" version="1.1" viewBox="0 0 30 30" xml:space="preserve" xmlns="http://www.w3.org/2000/svg" xmlns:xlink="http://www.w3.org/1999/xlink"><style type="text/css">
	.st0{fill:#FD6A7E;}
	.st1{fill:#17B978;}
	.st2{fill:#8797EE;}
	.st3{fill:#41A6F9;}
	.st4{fill:#37E0FF;}
	.st5{fill:#2FD9B9;}
	.st6{fill:#F498BD;}
	.st7{fill:#FFDF1D;}
	.st8{fill:#C6C9CC;}
</style><path class="st1" d="M25,22v4c0,0.6-0.4,1-1,1H6c-0.6,0-1-0.4-1-1V13c0-0.6,0.4-1,1-1h18c0.6,0,1,0.4,1,1v4h-4.5  c-1.4,0-2.5,1.1-2.5,2.5c0,1.4,1.1,2.5,2.5,2.5H25z M20.5,18.5c-0.6,0-1,0.4-1,1s0.4,1,1,1s1-0.4,1-1S21.1,18.5,20.5,18.5z M18.5,2  C17.1,2,16,3.1,16,4.5S17.1,7,18.5,7S21,5.9,21,4.5S19.9,2,18.5,2z M14.7,10C14.9,9.6,15,9.2,15,8.7c0-1.7-1.3-3-3-3s-3,1.3-3,3  C9,9.2,9.1,9.6,9.3,10H14.7z"/></svg>