<svg xmlns="http://www.w3.org/2000/svg" xmlns:xlink="http://www.w3.org/1999/xlink" width="412" height="870" viewBox="0 0 412 870">
  <defs>
    <filter id="Rectangle_15" x="21" y="-6" width="370" height="128" filterUnits="userSpaceOnUse">
      <feOffset dy="3" input="SourceAlpha"/>
      <feGaussianBlur stdDeviation="3" result="blur"/>
      <feFlood flood-opacity="0.161"/>
      <feComposite operator="in" in2="blur"/>
      <feComposite in="SourceGraphic"/>
    </filter>
    <filter id="Rectangle_16" x="192.5" y="175.5" width="155" height="155" filterUnits="userSpaceOnUse">
      <feOffset dy="3" input="SourceAlpha"/>
      <feGaussianBlur stdDeviation="2.5" result="blur-2"/>
      <feFlood flood-opacity="0.161"/>
      <feComposite operator="in" in2="blur-2"/>
      <feComposite in="SourceGraphic"/>
    </filter>
    <filter id="Rectangle_16-2" x="362.5" y="175.5" width="155" height="155" filterUnits="userSpaceOnUse">
      <feOffset dy="3" input="SourceAlpha"/>
      <feGaussianBlur stdDeviation="2.5" result="blur-3"/>
      <feFlood flood-opacity="0.161"/>
      <feComposite operator="in" in2="blur-3"/>
      <feComposite in="SourceGraphic"/>
    </filter>
    <filter id="Path_4" x="22.5" y="175.5" width="155" height="155" filterUnits="userSpaceOnUse">
      <feOffset dy="3" input="SourceAlpha"/>
      <feGaussianBlur stdDeviation="2.5" result="blur-4"/>
      <feFlood flood-opacity="0.161"/>
      <feComposite operator="in" in2="blur-4"/>
      <feComposite in="SourceGraphic"/>
    </filter>
    <filter id="Rectangle_19" x="-9" y="348" width="430" height="563" filterUnits="userSpaceOnUse">
      <feOffset dy="3" input="SourceAlpha"/>
      <feGaussianBlur stdDeviation="3" result="blur-5"/>
      <feFlood flood-opacity="0.161"/>
      <feComposite operator="in" in2="blur-5"/>
      <feComposite in="SourceGraphic"/>
    </filter>
    <filter id="Ellipse_11" x="172" y="779" width="68" height="68" filterUnits="userSpaceOnUse">
      <feOffset dy="3" input="SourceAlpha"/>
      <feGaussianBlur stdDeviation="3" result="blur-6"/>
      <feFlood flood-opacity="0.161"/>
      <feComposite operator="in" in2="blur-6"/>
      <feComposite in="SourceGraphic"/>
    </filter>
    <filter id="Subtraction_1" x="-9" y="797" width="430" height="79" filterUnits="userSpaceOnUse">
      <feOffset dy="-3" input="SourceAlpha"/>
      <feGaussianBlur stdDeviation="3" result="blur-7"/>
      <feFlood flood-opacity="0.161"/>
      <feComposite operator="in" in2="blur-7"/>
      <feComposite in="SourceGraphic"/>
    </filter>
    <clipPath id="clip-Income">
      <rect width="412" height="870"/>
    </clipPath>
  </defs>
  <g id="Income" clip-path="url(#clip-Income)">
    <rect width="412" height="870" fill="#fff"/>
    <rect id="Rectangle_9" data-name="Rectangle 9" width="412" height="871" fill="rgba(115,189,197,0.9)"/>
    <g transform="matrix(1, 0, 0, 1, 0, 0)" filter="url(#Rectangle_15)">
      <path id="Rectangle_15-2" data-name="Rectangle 15" d="M0,0H352a0,0,0,0,1,0,0V60a50,50,0,0,1-50,50H50A50,50,0,0,1,0,60V0A0,0,0,0,1,0,0Z" transform="translate(30)" fill="#fff"/>
    </g>
    <text id="_1_54_500" data-name="₹1,54,500" transform="translate(136 82)" fill="#464e57" font-size="30" font-family="Nunito-Bold, Nunito" font-weight="700"><tspan x="0" y="0">₹1,54,500</tspan></text>
    <rect id="scroll_1" data-name="scroll 1" width="412" height="200" transform="translate(0 132)" fill="#fff"/>
    <g id="Group_38" data-name="Group 38">
      <g id="Group_28" data-name="Group 28">
        <g transform="matrix(1, 0, 0, 1, 0, 0)" filter="url(#Rectangle_16)">
          <rect id="Rectangle_16-3" data-name="Rectangle 16" width="140" height="140" rx="29" transform="translate(200 180)" fill="#c8dd8e"/>
        </g>
        <text id="Income-2" data-name="Income" transform="translate(242 257)" fill="#464e57" font-size="17" font-family="Nunito-SemiBold, Nunito" font-weight="600"><tspan x="0" y="0">Income</tspan></text>
        <path id="_3668841_earnings_income_wallet_icon" data-name="3668841_earnings_income_wallet_icon" d="M37,34v6.4A1.512,1.512,0,0,1,35.4,42H6.6A1.512,1.512,0,0,1,5,40.4V19.6A1.512,1.512,0,0,1,6.6,18H35.4A1.512,1.512,0,0,1,37,19.6V26H29.8a4,4,0,0,0,0,8Zm-7.2-5.6A1.6,1.6,0,1,0,31.4,30,1.512,1.512,0,0,0,29.8,28.4ZM26.6,2a3.961,3.961,0,0,0-4,4,4,4,0,0,0,8,0A3.961,3.961,0,0,0,26.6,2ZM20.52,14.8A4.429,4.429,0,0,0,21,12.72a4.714,4.714,0,0,0-4.8-4.8,4.714,4.714,0,0,0-4.8,4.8,4.429,4.429,0,0,0,.48,2.08Z" transform="translate(249 192)" fill="#464e57"/>
        <text id="_30_000" data-name="₹30,000" transform="translate(222 295)" fill="#464e57" font-size="25" font-family="Nunito-Bold, Nunito" font-weight="700"><tspan x="0" y="0">₹30,000</tspan></text>
      </g>
    </g>
    <g id="Group_27" data-name="Group 27">
      <g transform="matrix(1, 0, 0, 1, 0, 0)" filter="url(#Rectangle_16-2)">
        <rect id="Rectangle_16-4" data-name="Rectangle 16" width="140" height="140" rx="29" transform="translate(370 180)" fill="#f57c61"/>
      </g>
      <text id="Expense" transform="translate(408 257)" fill="#464e57" font-size="17" font-family="Nunito-SemiBold, Nunito" font-weight="600"><tspan x="0" y="0">Expense</tspan></text>
      <text id="_14_500" data-name="₹14,500" transform="translate(392 295)" fill="#464e57" font-size="25" font-family="Nunito-Bold, Nunito" font-weight="700"><tspan x="0" y="0">₹14,500</tspan></text>
      <g id="Group_21" data-name="Group 21" transform="translate(420.21 192)">
        <path id="Path_5" data-name="Path 5" d="M56.213,70.451h-21.7a3.184,3.184,0,0,1-.873,1.934,2.974,2.974,0,0,1-1.86.911V80.71a2.975,2.975,0,0,1,1.858.911,3.188,3.188,0,0,1,.876,1.936h21.7a3.188,3.188,0,0,1,.876-1.934,2.977,2.977,0,0,1,1.858-.914V73.3a2.963,2.963,0,0,1-1.858-.911,3.2,3.2,0,0,1-.876-1.934m-8.779,4.4a2.854,2.854,0,0,0-4.142,0,3.14,3.14,0,0,0,0,4.311,2.846,2.846,0,0,0,4.126.014l.013-.014a3.137,3.137,0,0,0,0-4.311Zm-2.07-1.484a3.417,3.417,0,0,1,2.473,1.067,3.745,3.745,0,0,1,0,5.148l-.018.016a3.4,3.4,0,0,1-4.931-.016,3.751,3.751,0,0,1,0-5.148l.007-.007A3.428,3.428,0,0,1,45.364,73.364ZM66.93,60.747a6.181,6.181,0,0,0-8.991,0,6.809,6.809,0,0,0,0,9.357,6.184,6.184,0,0,0,8.993,0,6.81,6.81,0,0,0,.015-9.343ZM55.515,65.791c-.007-.121-.009-.243-.009-.364,0-.155,0-.311.013-.464H26.648V83.156h.94V66.074a.279.279,0,0,1,.272-.283H55.515Zm.238,1.547a7.439,7.439,0,0,1-.189-.979H28.134v18.2h.94V67.623a.28.28,0,0,1,.274-.285ZM61.105,72.5a6.848,6.848,0,0,1-3.569-1.98l-.007-.007a7.289,7.289,0,0,1-1.6-2.609h-26.3V86.1H61.105Zm2.959-10.641v3.524h1.451a.272.272,0,0,1,.192.081.293.293,0,0,1,0,.4L62.589,69.2a.264.264,0,0,1-.386-.009l-3.035-3.3a.3.3,0,0,1-.089-.211.28.28,0,0,1,.274-.285H60.8V61.863a.279.279,0,0,1,.274-.285H63.79A.28.28,0,0,1,64.064,61.863Zm-.548,3.81V62.145H61.353v3.527a.28.28,0,0,1-.274.283H59.994L62.4,68.583l2.462-2.627H63.79A.28.28,0,0,1,63.516,65.672ZM34.253,69.881H56.475a.281.281,0,0,1,.274.285,2.615,2.615,0,0,0,.726,1.818,2.415,2.415,0,0,0,1.744.756.28.28,0,0,1,.274.285v7.958a.28.28,0,0,1-.274.285,2.409,2.409,0,0,0-1.744.753,2.617,2.617,0,0,0-.726,1.82.283.283,0,0,1-.274.285H34.253a.281.281,0,0,1-.274-.285,2.622,2.622,0,0,0-.726-1.818,2.421,2.421,0,0,0-1.747-.756.28.28,0,0,1-.274-.285V73.025a.279.279,0,0,1,.274-.285,2.421,2.421,0,0,0,1.747-.756,2.626,2.626,0,0,0,.726-1.818A.28.28,0,0,1,34.253,69.881Zm11.265,8.186a.464.464,0,0,0,.259-.155.446.446,0,0,0,.1-.285.4.4,0,0,0-.082-.253.548.548,0,0,0-.274-.162Zm-.305-2.326a.377.377,0,0,0-.194.151.387.387,0,0,0-.071.229.381.381,0,0,0,.065.216.468.468,0,0,0,.2.16ZM39.8,89.415a.285.285,0,0,1,0-.57H54.775a.285.285,0,0,1,0,.57Zm16.508,0a.285.285,0,0,1,0-.57H58.18a.285.285,0,0,1,0,.57Zm-30.032-.042a.285.285,0,0,1,0-.57h7.1a.286.286,0,0,1,0,.57ZM33.8,59.715a.266.266,0,0,1,.385,0,.291.291,0,0,1,0,.4l-1.074,1.1,0,0a.27.27,0,0,1-.2.1.267.267,0,0,1-.2-.1l0,0-1.076-1.1a.293.293,0,0,1,0-.4.269.269,0,0,1,.388,0l.626.64V54.709a.274.274,0,1,1,.548,0v5.646Zm4.683,1.2a.264.264,0,0,1,.386,0,.291.291,0,0,1,0,.4l-1.076,1.1,0,0a.272.272,0,0,1-.2.093.268.268,0,0,1-.2-.093l0,0-1.076-1.1a.293.293,0,0,1,0-.4.264.264,0,0,1,.385,0l.626.638v-9.83a.274.274,0,1,1,.548,0v9.83Zm3.389-2.027a.269.269,0,0,1,.388,0,.3.3,0,0,1,0,.4l-1.076,1.1,0,0a.263.263,0,0,1-.2.093.273.273,0,0,1-.205-.093l0,0-1.076-1.1a.3.3,0,0,1,0-.4.269.269,0,0,1,.388,0l.626.638V49.7a.273.273,0,1,1,.546,0v9.83ZM27.127,88.045a.286.286,0,0,1,0-.57H48.769a.285.285,0,0,1,0,.57ZM45.213,78.032v-.914a1.13,1.13,0,0,1-.6-.371.953.953,0,0,1-.192-.6.878.878,0,0,1,.216-.6.862.862,0,0,1,.575-.281v-.213h.305v.213a.9.9,0,0,1,.535.237.934.934,0,0,1,.252.524l-.533.072a.444.444,0,0,0-.254-.348V76.6a1.349,1.349,0,0,1,.688.366.893.893,0,0,1,.185.58.99.99,0,0,1-.232.665,1.019,1.019,0,0,1-.642.336v.408h-.305v-.4a.961.961,0,0,1-.588-.278,1.177,1.177,0,0,1-.287-.661l.546-.067a.771.771,0,0,0,.125.3A.606.606,0,0,0,45.213,78.032Z" transform="translate(-26.002 -49.415)" fill="#464e57" fill-rule="evenodd"/>
      </g>
    </g>
    <g id="Group_29" data-name="Group 29">
      <g transform="matrix(1, 0, 0, 1, 0, 0)" filter="url(#Path_4)">
        <path id="Path_4-2" data-name="Path 4" d="M29,0h82a29,29,0,0,1,29,29v82a29,29,0,0,1-29,29H29A29,29,0,0,1,0,111V29A29,29,0,0,1,29,0Z" transform="translate(30 180)" fill="#9bc6e9"/>
      </g>
      <text id="Savings" transform="translate(70 259)" fill="#464e57" font-size="17" font-family="Nunito-SemiBold, Nunito" font-weight="600"><tspan x="0" y="0">Savings</tspan></text>
      <rect id="Rectangle_14" data-name="Rectangle 14" width="40" height="40" transform="translate(80 195)" fill="none"/>
      <path id="Path_1" data-name="Path 1" d="M25.806,16.925a1.832,1.832,0,1,1,1.831,1.866A1.854,1.854,0,0,1,25.806,16.925ZM12.988,15.06h9.156V11.328H12.988Zm25.637-2.8v13l-5.164,1.754L30.384,37.448H20.313V33.717H16.65v3.731H6.578S2,21.664,2,15.993A10.162,10.162,0,0,1,12.072,5.731h9.156A9.093,9.093,0,0,1,28.553,2,2.769,2.769,0,0,1,31.3,4.8a2.655,2.655,0,0,1-.22,1.082,9.15,9.15,0,0,0-.586,2.146l4.157,4.235Zm-3.662,3.731H33.131l-6.409-6.53A13.694,13.694,0,0,1,27.2,5.9a5.563,5.563,0,0,0-3.827,3.563h-11.3a6.478,6.478,0,0,0-6.409,6.53C5.662,19.5,7.9,28.4,9.343,33.717h3.644V29.985H23.975v3.731h3.681l2.838-9.608,4.468-1.53Z" transform="translate(79.688 196)" fill="#464e57"/>
      <text id="_55_500" data-name="₹55,500" transform="translate(52 297)" fill="#464e57" font-size="25" font-family="Nunito-Bold, Nunito" font-weight="700"><tspan x="0" y="0">₹55,500</tspan></text>
    </g>
    <g id="Group_68" data-name="Group 68" transform="translate(14 -1)">
      <circle id="Ellipse_12" data-name="Ellipse 12" cx="15" cy="15" r="15" transform="translate(36 20)" fill="#464e57"/>
      <g id="home_black_24dp" transform="translate(44.788 215.167)">
        <path id="Path_20" data-name="Path 20" d="M0,0H24V19H0Z" transform="translate(-5.788 -189.333)" fill="none"/>
        <path id="Path_21" data-name="Path 21" d="M13.741,6.158l5.871,5.284v9.17H17.264V13.567H10.219v7.045H7.871v-9.17l5.871-5.284m0-3.158L2,13.567H5.522V22.96h7.045V15.915h2.348V22.96H21.96V13.567h3.522Z" transform="translate(-7.647 -193.167)" fill="#fff"/>
      </g>
    </g>
    <g transform="matrix(1, 0, 0, 1, 0, 0)" filter="url(#Rectangle_19)">
      <rect id="Rectangle_19-2" data-name="Rectangle 19" width="412" height="545" rx="30" transform="translate(0 354)" fill="#fff"/>
    </g>
    <g id="Group_86" data-name="Group 86" transform="translate(0 10)">
      <g id="Group_72" data-name="Group 72" transform="translate(0 14)">
        <g id="Group_46" data-name="Group 46" transform="translate(0 30)">
          <text id="Yesterday" transform="translate(30 400.5)" fill="#464e57" font-size="20" font-family="Nunito-SemiBold, Nunito" font-weight="600" style="mix-blend-mode: hard-light;isolation: isolate"><tspan x="0" y="0">Yesterday</tspan></text>
        </g>
        <g id="Group_65" data-name="Group 65" transform="translate(0 124)">
          <text id="march_15" data-name="march 15" transform="translate(30 400.5)" fill="#464e57" font-size="20" font-family="Nunito-SemiBold, Nunito" font-weight="600" style="mix-blend-mode: hard-light;isolation: isolate"><tspan x="0" y="0">march 15</tspan></text>
        </g>
        <g id="Group_58" data-name="Group 58" transform="translate(1 -2)">
          <text id="Salary" transform="translate(30 469)" fill="#464e57" font-size="20" font-family="Nunito-SemiBold, Nunito" font-weight="600"><tspan x="0" y="0">Salary</tspan></text>
          <text id="_5000" data-name="+5000" transform="translate(321 469)" fill="#c8dd8e" font-size="20" font-family="Nunito-SemiBold, Nunito" font-weight="600"><tspan x="0" y="0">+5000</tspan></text>
        </g>
        <g id="Group_64" data-name="Group 64" transform="translate(1 92)">
          <text id="Shop_profit" data-name="Shop profit" transform="translate(30 469)" fill="#464e57" font-size="20" font-family="Nunito-SemiBold, Nunito" font-weight="600"><tspan x="0" y="0">Shop profit</tspan></text>
          <text id="_25000" data-name="+25000" transform="translate(309 469)" fill="#c8dd8e" font-size="20" font-family="Nunito-SemiBold, Nunito" font-weight="600"><tspan x="0" y="0">+25000</tspan></text>
        </g>
        <g id="Group_63" data-name="Group 63" transform="translate(0 124)">
          <text id="February_15" data-name="February 15" transform="translate(30.5 494)" fill="#464e57" font-size="20" font-family="Nunito-SemiBold, Nunito" font-weight="600" style="mix-blend-mode: hard-light;isolation: isolate"><tspan x="0" y="0">February 15</tspan></text>
          <text id="Salary-2" data-name="Salary" transform="translate(31.5 530.5)" fill="#464e57" font-size="20" font-family="Nunito-SemiBold, Nunito" font-weight="600"><tspan x="0" y="0">Salary</tspan></text>
          <text id="_15000" data-name="+15000" transform="translate(309.5 530.5)" fill="#c8dd8e" font-size="20" font-family="Nunito-SemiBold, Nunito" font-weight="600"><tspan x="0" y="0">+15000</tspan></text>
          <text id="Incentive" transform="translate(31.5 562.5)" fill="#464e57" font-size="20" font-family="Nunito-SemiBold, Nunito" font-weight="600"><tspan x="0" y="0">Incentive</tspan></text>
          <text id="_3000" data-name="+3000" transform="translate(322.5 562.5)" fill="#c8dd8e" font-size="20" font-family="Nunito-SemiBold, Nunito" font-weight="600"><tspan x="0" y="0">+3000</tspan></text>
        </g>
        <text id="February_5" data-name="February 5" transform="translate(29.5 746)" fill="#464e57" font-size="20" font-family="Nunito-SemiBold, Nunito" font-weight="600" style="mix-blend-mode: hard-light;isolation: isolate"><tspan x="0" y="0">February 5</tspan></text>
        <text id="Shop_profit-2" data-name="Shop profit" transform="translate(30.5 782.5)" fill="#464e57" font-size="20" font-family="Nunito-SemiBold, Nunito" font-weight="600"><tspan x="0" y="0">Shop profit</tspan></text>
        <text id="_6000" data-name="+6000" transform="translate(321.5 782.5)" fill="#c8dd8e" font-size="20" font-family="Nunito-SemiBold, Nunito" font-weight="600"><tspan x="0" y="0">+6000</tspan></text>
      </g>
      <g id="Group_70" data-name="Group 70" transform="translate(0 -9.5)" style="isolation: isolate">
        <text id="Income-3" data-name="Income" transform="translate(30 400.5)" fill="#464e57" font-size="20" font-family="Nunito-Bold, Nunito" font-weight="700" style="mix-blend-mode: hard-light;isolation: isolate"><tspan x="0" y="0">Income</tspan></text>
      </g>
    </g>
    <g id="Group_67" data-name="Group 67">
      <g transform="matrix(1, 0, 0, 1, 0, 0)" filter="url(#Ellipse_11)">
        <circle id="Ellipse_11-2" data-name="Ellipse 11" cx="25" cy="25" r="25" transform="translate(181 785)" fill="#464e57"/>
      </g>
      <g id="add_black_24dp" transform="translate(186 790)">
        <path id="Path_2" data-name="Path 2" d="M0,0H40V40H0Z" fill="none"/>
        <path id="Path_3" data-name="Path 3" d="M35,22.143H22.143V35H17.857V22.143H5V17.857H17.857V5h4.286V17.857H35Z" transform="translate(0 0)" fill="#fff"/>
      </g>
    </g>
    <g id="Group_66" data-name="Group 66">
      <g transform="matrix(1, 0, 0, 1, 0, 0)" filter="url(#Subtraction_1)">
        <path id="Subtraction_1-2" data-name="Subtraction 1" d="M412,92.484H0v-30a30.974,30.974,0,0,1,31-31H174c0,.152,0,.308,0,.492,0,17.631,14.579,31.975,32.5,31.975S239,49.607,239,31.976c0-.166,0-.327,0-.492H381a30.975,30.975,0,0,1,31,31v30Z" transform="translate(0 777.52)" fill="#fff"/>
      </g>
      <g id="Group_62" data-name="Group 62" transform="translate(-65.093 -933)">
        <path id="_3668841_earnings_income_wallet_icon-2" data-name="3668841_earnings_income_wallet_icon" d="M25,22v4a.945.945,0,0,1-1,1H6a.945.945,0,0,1-1-1V13a.945.945,0,0,1,1-1H24a.945.945,0,0,1,1,1v4H20.5a2.5,2.5,0,0,0,0,5Zm-4.5-3.5a1,1,0,1,0,1,1A.945.945,0,0,0,20.5,18.5ZM18.5,2A2.476,2.476,0,0,0,16,4.5a2.5,2.5,0,0,0,5,0A2.476,2.476,0,0,0,18.5,2Zm-3.8,8A2.768,2.768,0,0,0,15,8.7a3,3,0,1,0-6,0A2.768,2.768,0,0,0,9.3,10Z" transform="translate(108.093 1759)" fill="#464e57"/>
        <g id="Group_26" data-name="Group 26" transform="translate(104.093 1569)">
          <path id="Path_5-2" data-name="Path 5" d="M45.639,63.089h-14.1a2.07,2.07,0,0,1-.568,1.257,1.933,1.933,0,0,1-1.209.592v4.819a1.934,1.934,0,0,1,1.208.592,2.072,2.072,0,0,1,.569,1.259h14.1a2.072,2.072,0,0,1,.569-1.257,1.935,1.935,0,0,1,1.208-.594V64.938a1.926,1.926,0,0,1-1.208-.592,2.08,2.08,0,0,1-.569-1.257m-5.706,2.858a1.855,1.855,0,0,0-2.692,0,2.041,2.041,0,0,0,0,2.8,1.85,1.85,0,0,0,2.682.009l.009-.009a2.039,2.039,0,0,0,0-2.8Zm-1.345-.965a2.221,2.221,0,0,1,1.608.693,2.434,2.434,0,0,1,0,3.346l-.012.011a2.21,2.21,0,0,1-3.2-.011,2.438,2.438,0,0,1,0-3.346l0,0A2.228,2.228,0,0,1,38.587,64.982Zm14.018-8.2a4.018,4.018,0,0,0-5.844,0,4.426,4.426,0,0,0,0,6.082,4.019,4.019,0,0,0,5.845,0,4.426,4.426,0,0,0,.01-6.073Zm-7.419,3.278c0-.078-.006-.158-.006-.237,0-.1,0-.2.009-.3H26.422V71.347h.611v-11.1a.181.181,0,0,1,.177-.184H45.186Zm.155,1.005a4.835,4.835,0,0,1-.123-.636H27.388V72.256H28V61.25a.182.182,0,0,1,.178-.185Zm3.479,3.358a4.451,4.451,0,0,1-2.32-1.287l0,0a4.738,4.738,0,0,1-1.041-1.7h-17.1V73.261H48.819Zm1.923-6.917V59.8h.943a.177.177,0,0,1,.125.053.191.191,0,0,1,0,.261l-2.029,2.163a.172.172,0,0,1-.251-.006l-1.973-2.148a.194.194,0,0,1-.058-.137.182.182,0,0,1,.178-.185h.943V57.506a.182.182,0,0,1,.178-.185h1.763A.182.182,0,0,1,50.742,57.506Zm-.356,2.476V57.69H48.98v2.293a.182.182,0,0,1-.178.184H48.1l1.567,1.708,1.6-1.708h-.7A.182.182,0,0,1,50.386,59.982ZM31.365,62.718H45.81a.183.183,0,0,1,.178.185,1.7,1.7,0,0,0,.472,1.182,1.57,1.57,0,0,0,1.134.491.182.182,0,0,1,.178.185v5.173a.182.182,0,0,1-.178.185,1.566,1.566,0,0,0-1.134.49,1.7,1.7,0,0,0-.472,1.183.184.184,0,0,1-.178.185H31.365a.183.183,0,0,1-.178-.185,1.7,1.7,0,0,0-.472-1.182,1.573,1.573,0,0,0-1.135-.491.182.182,0,0,1-.178-.185V64.762a.182.182,0,0,1,.178-.185,1.574,1.574,0,0,0,1.135-.491,1.707,1.707,0,0,0,.472-1.182A.182.182,0,0,1,31.365,62.718Zm7.322,5.321a.3.3,0,0,0,.168-.1.29.29,0,0,0,.064-.185.259.259,0,0,0-.054-.164.356.356,0,0,0-.178-.106Zm-.2-1.512a.245.245,0,0,0-.126.1.251.251,0,0,0-.046.149.248.248,0,0,0,.042.14.3.3,0,0,0,.13.1Zm-3.518,8.888a.186.186,0,0,1,0-.371H44.7a.186.186,0,0,1,0,.371Zm10.73,0a.186.186,0,0,1,0-.371h1.217a.186.186,0,0,1,0,.371ZM26.18,75.388a.186.186,0,0,1,0-.371h4.613a.186.186,0,0,1,0,.371ZM31.072,56.11a.173.173,0,0,1,.251,0,.189.189,0,0,1,0,.261l-.7.713,0,0a.175.175,0,0,1-.132.062.174.174,0,0,1-.132-.062l0,0-.7-.713a.191.191,0,0,1,0-.261.175.175,0,0,1,.252,0l.407.416v-3.67a.178.178,0,1,1,.356,0v3.67Zm3.044.782a.172.172,0,0,1,.251,0,.189.189,0,0,1,0,.261l-.7.714,0,0a.177.177,0,0,1-.132.06.174.174,0,0,1-.132-.06l0,0-.7-.714a.19.19,0,0,1,0-.261.172.172,0,0,1,.251,0l.407.415V50.918a.178.178,0,1,1,.356,0v6.389Zm2.2-1.317a.175.175,0,0,1,.252,0,.193.193,0,0,1,0,.262l-.7.713,0,0a.171.171,0,0,1-.13.06.177.177,0,0,1-.133-.06l0,0-.7-.713a.192.192,0,0,1,0-.262.175.175,0,0,1,.252,0l.407.415V49.6a.178.178,0,1,1,.355,0V55.99ZM26.733,74.524a.186.186,0,0,1,0-.371H40.8a.186.186,0,0,1,0,.371Zm11.755-6.508v-.594a.734.734,0,0,1-.39-.241.619.619,0,0,1-.125-.39.571.571,0,0,1,.14-.39.56.56,0,0,1,.374-.182v-.138h.2v.138a.587.587,0,0,1,.348.154.607.607,0,0,1,.164.34l-.346.047a.288.288,0,0,0-.165-.226v.553a.877.877,0,0,1,.448.238.58.58,0,0,1,.12.377.644.644,0,0,1-.151.432.662.662,0,0,1-.417.219v.265h-.2v-.262a.625.625,0,0,1-.382-.181.765.765,0,0,1-.187-.429l.355-.044a.5.5,0,0,0,.081.2A.394.394,0,0,0,38.489,68.016Z" transform="translate(52.998 141.585)" fill="#464e57" fill-rule="evenodd"/>
        </g>
        <g id="Group_54" data-name="Group 54" transform="translate(-241.907 86)">
          <g id="Group_53" data-name="Group 53" transform="translate(573 1676)">
            <g id="Group_24" data-name="Group 24" transform="translate(0 0)">
              <path id="Path_6" data-name="Path 6" d="M21.4,13.8A6.4,6.4,0,1,0,15,7.4,6.4,6.4,0,0,0,21.4,13.8ZM19.8,8.2a.8.8,0,0,1-.8-.8V4.84a.8.8,0,0,1,.8-.8h.936a.8.8,0,0,1,1.536,0H23a.8.8,0,0,1,0,1.6H20.6V6.6H23a.8.8,0,0,1,.8.8V9.96a.8.8,0,0,1-.8.8h-.728a.8.8,0,0,1-1.536,0H19.8a.8.8,0,0,1,0-1.6h2.4V8.2Z" transform="translate(-3.8 -1)" fill="#464e57"/>
              <path id="Path_7" data-name="Path 7" d="M26.924,22.786a1.984,1.984,0,0,0-2.288-1.24l-3.2.656a4.576,4.576,0,0,0,0-.464,2.4,2.4,0,0,0-2.48-2.336h0a6.464,6.464,0,0,1-3.008-.64L14.436,18.1a2.048,2.048,0,0,0-1.288-.112.528.528,0,0,0-.16.048L12,18.482a4.8,4.8,0,0,1,.224,2.488l-.944,5.072a1.443,1.443,0,0,1-.1.352l4.28,1.648a4.872,4.872,0,0,0,1.808.344,4.936,4.936,0,0,0,1.848-.36l6.632-2.688A2.056,2.056,0,0,0,26.924,22.786Z" transform="translate(-3.036 -4.386)" fill="#464e57"/>
              <path id="Path_8" data-name="Path 8" d="M6.6,17.111l-4.656-.7A.8.8,0,0,0,1,17.2v9.6a.8.8,0,0,0,.8.8H5.32a2.464,2.464,0,0,0,2.344-2.152l.944-5.08a3.008,3.008,0,0,0-.488-2.272A2.3,2.3,0,0,0,6.6,17.111Z" transform="translate(-1 -4.079)" fill="#464e57"/>
            </g>
          </g>
        </g>
        <g id="Group_59" data-name="Group 59" transform="translate(154.093 1567)">
          <path id="Path_10" data-name="Path 10" d="M310.116,173.107l1.763,1.02a.623.623,0,0,0,.563,0l1-.588a.173.173,0,0,0,0-.327l-1.763-1.02a.622.622,0,0,0-.563,0l-1,.588A.173.173,0,0,0,310.116,173.107Z" transform="translate(-44.741 29.159)" fill="#464e57"/>
          <path id="Path_11" data-name="Path 11" d="M35.793,11.491,35.8,8.532V8.5h0a.287.287,0,0,0-.143-.189L21.391.084a.789.789,0,0,0-.709,0l-8.5,4.938c-.112.066-.158.153-.138.24h0V8.068l-.015.01.015.01v2.75l-.015.01.015.01v2.755l-.015.01.015.01v2.76l13.754,7.963.821.474L26.9,25l8.877-5.158.005-2.785v-.005l.01-5.561.005-.005ZM15.81,4.466a1.962,1.962,0,0,0-.255-.122l3.964-2.3a1.373,1.373,0,0,0,.209.148,2.886,2.886,0,0,0,2.617,0,1.149,1.149,0,0,0,.214-.153L32.2,7.6a1.9,1.9,0,0,0-.357.163.8.8,0,0,0,.01,1.515,2,2,0,0,0,.367.163l-4,2.326a1.253,1.253,0,0,0-.286-.209,2.886,2.886,0,0,0-2.617,0,1.078,1.078,0,0,0-.148.1l-9.616-5.55a1.807,1.807,0,0,0,.265-.128A.8.8,0,0,0,15.81,4.466Zm18.916,14.7L26.9,23.714l-13.8-7.984v-1.49l12.687,7.331.821.474.291.168,7.836-4.561v1.515Zm0-2.8-7.846,4.556L13.091,12.955v-1.49l12.7,7.346.821.474.286.168L34.727,14.9Zm0-2.842L26.9,18.169l-13.8-7.979V8.7l12.687,7.331.821.474.291.168,7.836-4.556v1.418Zm0-2.709-7.846,4.556L13.091,7.42V5.961L26.442,13.67a.789.789,0,0,0,.709,0l7.576-4.4Z" transform="translate(238.975 194)" fill="#464e57"/>
          <path id="Path_12" data-name="Path 12" d="M136.716,73.1l1.763,1.02a.623.623,0,0,0,.563,0l1-.588a.173.173,0,0,0,0-.326l-1.763-1.012a.622.622,0,0,0-.563,0l-1,.58A.173.173,0,0,0,136.716,73.1Z" transform="translate(120.361 125.762)" fill="#464e57"/>
          <path id="Path_13" data-name="Path 13" d="M177.592,90.459a10.012,10.012,0,0,0-9.06,0c-2.49,1.445-2.473,3.8.033,5.24a9.995,9.995,0,0,0,9.052,0C180.106,94.254,180.089,91.9,177.592,90.459Zm-5.224,3.379H170.6V91.83l1.763.008v.988l4.032.008v1.02Z" transform="translate(89.814 109.92)" fill="#464e57"/>
        </g>
      </g>
    </g>
    <g id="Group_74" data-name="Group 74" transform="translate(12)">
      <g id="Group_12" data-name="Group 12" transform="translate(13 -10)">
        <g id="savings_black_24dp" transform="translate(101 30)">
          <rect id="Rectangle_14-2" data-name="Rectangle 14" width="27" height="27" fill="none"/>
          <g id="Group_11" data-name="Group 11" transform="translate(1.688 1.688)">
            <path id="Path_1-2" data-name="Path 1" d="M17.356,11.592a1.181,1.181,0,1,1,1.181,1.2A1.194,1.194,0,0,1,17.356,11.592Zm-8.269-1.2h5.906V8H9.087Zm16.538-1.8v8.357l-3.331,1.127-1.984,6.7h-6.5v-2.4H11.45v2.4h-6.5S2,14.638,2,10.993A6.543,6.543,0,0,1,8.5,4.4H14.4A5.872,5.872,0,0,1,19.128,2,1.783,1.783,0,0,1,20.9,3.8a1.7,1.7,0,0,1-.142.7,5.863,5.863,0,0,0-.378,1.379l2.681,2.722Zm-2.362,2.4H22.081L17.947,6.8a8.77,8.77,0,0,1,.307-2.29A3.583,3.583,0,0,0,15.785,6.8H8.5a4.17,4.17,0,0,0-4.134,4.2c0,2.254,1.441,7.973,2.374,11.391H9.087v-2.4h7.088v2.4h2.374l1.831-6.175,2.882-.983Z" transform="translate(-2 -2)" fill="#464e57"/>
          </g>
        </g>
      </g>
      <text id="Total_Savings" data-name="Total Savings" transform="translate(151 40)" fill="#464e57" font-size="20" font-family="Nunito-Bold, Nunito" font-weight="700"><tspan x="0" y="0">Total Savings</tspan></text>
    </g>
    <g id="Group_104" data-name="Group 104">
      <circle id="Ellipse_12-2" data-name="Ellipse 12" cx="15" cy="15" r="15" transform="translate(332 20)" fill="#464e57"/>
      <g id="more_vert_black_24dp_1_" data-name="more_vert_black_24dp (1)" transform="translate(335 23)">
        <path id="Path_24" data-name="Path 24" d="M0,0H24V24H0Z" fill="none"/>
        <path id="Path_25" data-name="Path 25" d="M12,8a2,2,0,1,0-2-2A2.006,2.006,0,0,0,12,8Zm0,2a2,2,0,1,0,2,2A2.006,2.006,0,0,0,12,10Zm0,6a2,2,0,1,0,2,2A2.006,2.006,0,0,0,12,16Z" fill="#fff"/>
      </g>
    </g>
    <g id="Group_82" data-name="Group 82">
      <text id="March" transform="translate(30 163)" fill="#464e57" font-size="20" font-family="Nunito-Bold, Nunito" font-weight="700"><tspan x="0" y="0">March</tspan></text>
      <g id="arrow_drop_down_black_24dp" transform="translate(92 143)">
        <path id="Path_22" data-name="Path 22" d="M0,0H27V27H0Z" fill="none"/>
        <path id="Path_23" data-name="Path 23" d="M7,10l5,5,5-5Z" transform="translate(1.5 1.579)" fill="#464e57"/>
      </g>
    </g>
    <g id="search_black_24dp" transform="translate(358 382)" style="mix-blend-mode: hard-light;isolation: isolate">
      <path id="Path_34" data-name="Path 34" d="M0,0H24V24H0Z" fill="none"/>
      <path id="Path_35" data-name="Path 35" d="M15.5,14h-.79l-.28-.27a6.51,6.51,0,1,0-.7.7l.27.28v.79l5,4.99L20.49,19Zm-6,0A4.5,4.5,0,1,1,14,9.5,4.494,4.494,0,0,1,9.5,14Z" fill="#464e57"/>
    </g>
  </g>
</svg>
